<mxfile host="Electron" modified="2025-01-02T22:10:41.211Z" agent="Mozilla/5.0 (Windows NT 10.0; Win64; x64) AppleWebKit/537.36 (KHTML, like Gecko) draw.io/22.1.16 Chrome/120.0.6099.109 Electron/28.1.0 Safari/537.36" etag="FSzs4p5sygz3PdVKH1NV" version="22.1.16" type="device">
  <diagram name="Side-1" id="Fn6a5v44mwTmt5I3TOSE">
    <mxGraphModel dx="1232" dy="1180" grid="1" gridSize="10" guides="1" tooltips="1" connect="1" arrows="1" fold="1" page="1" pageScale="1" pageWidth="827" pageHeight="1169" math="0" shadow="0">
      <root>
        <mxCell id="0" />
        <mxCell id="1" parent="0" />
        <mxCell id="I3PRdkZR0kk82uiGW21p-1" value="&amp;lt;&amp;lt;Block&amp;gt;&amp;gt;&lt;br&gt;FPGAAudioEffects" style="rounded=0;whiteSpace=wrap;html=1;" vertex="1" parent="1">
          <mxGeometry x="364" y="90" width="120" height="60" as="geometry" />
        </mxCell>
        <mxCell id="I3PRdkZR0kk82uiGW21p-2" value="&amp;lt;&amp;lt;Block&amp;gt;&amp;gt;&lt;br&gt;ZyboProcessingSystem" style="rounded=0;whiteSpace=wrap;html=1;" vertex="1" parent="1">
          <mxGeometry x="64" y="270" width="140" height="60" as="geometry" />
        </mxCell>
        <mxCell id="I3PRdkZR0kk82uiGW21p-3" value="&amp;lt;&amp;lt;FPGA&amp;gt;&amp;gt;&lt;br&gt;ZyboAudio" style="rounded=0;whiteSpace=wrap;html=1;" vertex="1" parent="1">
          <mxGeometry x="224" y="270" width="120" height="60" as="geometry" />
        </mxCell>
        <mxCell id="I3PRdkZR0kk82uiGW21p-4" value="&amp;lt;&amp;lt;FPGA&amp;gt;&amp;gt;&lt;br&gt;Equalizer" style="rounded=0;whiteSpace=wrap;html=1;" vertex="1" parent="1">
          <mxGeometry x="364" y="270" width="120" height="60" as="geometry" />
        </mxCell>
        <mxCell id="I3PRdkZR0kk82uiGW21p-5" value="&amp;lt;&amp;lt;FPGA&amp;gt;&amp;gt;&lt;br&gt;PitchShifter" style="rounded=0;whiteSpace=wrap;html=1;" vertex="1" parent="1">
          <mxGeometry x="504" y="270" width="120" height="60" as="geometry" />
        </mxCell>
        <mxCell id="I3PRdkZR0kk82uiGW21p-6" value="&amp;lt;&amp;lt;FPGA&amp;gt;&amp;gt;&lt;br&gt;Reverb" style="rounded=0;whiteSpace=wrap;html=1;" vertex="1" parent="1">
          <mxGeometry x="644" y="270" width="120" height="60" as="geometry" />
        </mxCell>
        <mxCell id="I3PRdkZR0kk82uiGW21p-7" value="" style="endArrow=diamondThin;endFill=1;endSize=24;html=1;rounded=0;entryX=0.5;entryY=1;entryDx=0;entryDy=0;edgeStyle=orthogonalEdgeStyle;exitX=0.5;exitY=0;exitDx=0;exitDy=0;" edge="1" parent="1" source="I3PRdkZR0kk82uiGW21p-2" target="I3PRdkZR0kk82uiGW21p-1">
          <mxGeometry width="160" relative="1" as="geometry">
            <mxPoint x="254" y="220" as="sourcePoint" />
            <mxPoint x="414" y="220" as="targetPoint" />
          </mxGeometry>
        </mxCell>
        <mxCell id="I3PRdkZR0kk82uiGW21p-8" value="" style="endArrow=diamondThin;endFill=1;endSize=24;html=1;rounded=0;entryX=0.5;entryY=1;entryDx=0;entryDy=0;edgeStyle=orthogonalEdgeStyle;exitX=0.5;exitY=0;exitDx=0;exitDy=0;" edge="1" parent="1" source="I3PRdkZR0kk82uiGW21p-3" target="I3PRdkZR0kk82uiGW21p-1">
          <mxGeometry width="160" relative="1" as="geometry">
            <mxPoint x="144" y="280" as="sourcePoint" />
            <mxPoint x="434" y="160" as="targetPoint" />
          </mxGeometry>
        </mxCell>
        <mxCell id="I3PRdkZR0kk82uiGW21p-9" value="" style="endArrow=diamondThin;endFill=1;endSize=24;html=1;rounded=0;entryX=0.5;entryY=1;entryDx=0;entryDy=0;edgeStyle=orthogonalEdgeStyle;exitX=0.5;exitY=0;exitDx=0;exitDy=0;" edge="1" parent="1" source="I3PRdkZR0kk82uiGW21p-4" target="I3PRdkZR0kk82uiGW21p-1">
          <mxGeometry width="160" relative="1" as="geometry">
            <mxPoint x="294" y="280" as="sourcePoint" />
            <mxPoint x="434" y="160" as="targetPoint" />
          </mxGeometry>
        </mxCell>
        <mxCell id="I3PRdkZR0kk82uiGW21p-10" value="" style="endArrow=diamondThin;endFill=1;endSize=24;html=1;rounded=0;entryX=0.5;entryY=1;entryDx=0;entryDy=0;edgeStyle=orthogonalEdgeStyle;exitX=0.5;exitY=0;exitDx=0;exitDy=0;" edge="1" parent="1" source="I3PRdkZR0kk82uiGW21p-5" target="I3PRdkZR0kk82uiGW21p-1">
          <mxGeometry width="160" relative="1" as="geometry">
            <mxPoint x="434" y="280" as="sourcePoint" />
            <mxPoint x="434" y="160" as="targetPoint" />
          </mxGeometry>
        </mxCell>
        <mxCell id="I3PRdkZR0kk82uiGW21p-11" value="" style="endArrow=diamondThin;endFill=1;endSize=24;html=1;rounded=0;entryX=0.5;entryY=1;entryDx=0;entryDy=0;edgeStyle=orthogonalEdgeStyle;exitX=0.5;exitY=0;exitDx=0;exitDy=0;" edge="1" parent="1" source="I3PRdkZR0kk82uiGW21p-6" target="I3PRdkZR0kk82uiGW21p-1">
          <mxGeometry width="160" relative="1" as="geometry">
            <mxPoint x="574" y="280" as="sourcePoint" />
            <mxPoint x="434" y="160" as="targetPoint" />
          </mxGeometry>
        </mxCell>
        <mxCell id="I3PRdkZR0kk82uiGW21p-12" value="&lt;b&gt;BDD &lt;/b&gt;FPGAAudioEffects" style="shape=umlFrame;whiteSpace=wrap;html=1;pointerEvents=0;width=150;height=30;" vertex="1" parent="1">
          <mxGeometry x="50" y="70" width="730" height="280" as="geometry" />
        </mxCell>
      </root>
    </mxGraphModel>
  </diagram>
</mxfile>
